<svg xmlns="http://www.w3.org/2000/svg" viewBox="0 0 32 32"><title>instregem</title><g id="904180fb-e812-4e41-8ee8-c0cb1ea8806e" data-name="圖層 4"><path d="M22.52,11.07a2.82,2.82,0,0,0-1.59-1.59C19.83,9,17.22,9.15,16,9.15s-3.83-.1-4.93.34a2.82,2.82,0,0,0-1.59,1.59c-.43,1.1-.34,3.71-.34,4.93s-.1,3.83.34,4.93a2.82,2.82,0,0,0,1.59,1.59c1.1.43,3.71.34,4.93.34s3.83.1,4.93-.34a2.82,2.82,0,0,0,1.59-1.59c.44-1.1.34-3.71.34-4.93S23,12.17,22.52,11.07ZM16,20.29A4.29,4.29,0,1,1,20.29,16,4.28,4.28,0,0,1,16,20.29Zm4.46-7.75a1,1,0,1,1,1-1A1,1,0,0,1,20.46,12.54Z" style="fill:#fff"/><path d="M16,0A16,16,0,1,0,32,16,16,16,0,0,0,16,0Zm8.3,19.45A5,5,0,0,1,23,23a5,5,0,0,1-3.5,1.35c-1.38.08-5.52.08-6.9,0A5,5,0,0,1,9,23a5,5,0,0,1-1.35-3.5c-.08-1.38-.08-5.52,0-6.9A5,5,0,0,1,9,9a5,5,0,0,1,3.5-1.35c1.38-.08,5.52-.08,6.9,0A5,5,0,0,1,23,9a5,5,0,0,1,1.35,3.5C24.38,13.93,24.38,18.07,24.3,19.45Z" style="fill:#fff"/><circle cx="16" cy="16" r="2.79" style="fill:#fff"/></g></svg>