<svg xmlns="http://www.w3.org/2000/svg" viewBox="0 0 198 75.33"><title>背景插圖-切圖板</title><g id="4ea83c76-a78a-4719-827d-bfd667108780" data-name="圖層 5"><path d="M76.18,70.84V59.23h1.15V70.84Z" style="fill:#141414"/><path d="M102.37,67.87a3.81,3.81,0,0,1-.23,1.37,3,3,0,0,1-.63,1,2.73,2.73,0,0,1-.94.64,3,3,0,0,1-1.15.22,3.56,3.56,0,0,1-1.63-.38,3.33,3.33,0,0,1-1.21-1l.71-.8a2.58,2.58,0,0,0,1,.84,2.52,2.52,0,0,0,1.16.3,1.75,1.75,0,0,0,1.32-.56,2.21,2.21,0,0,0,.53-1.59,2.16,2.16,0,0,0-.16-.87,2.32,2.32,0,0,0-.44-.67,3.48,3.48,0,0,0-.63-.52,7.53,7.53,0,0,0-.75-.43,7.23,7.23,0,0,1-.9-.52,3.62,3.62,0,0,1-.75-.66,3,3,0,0,1-.52-.89,3.38,3.38,0,0,1-.2-1.21,3.67,3.67,0,0,1,.25-1.4,2.9,2.9,0,0,1,.66-1,2.74,2.74,0,0,1,.94-.6,3.09,3.09,0,0,1,1.1-.2,3.56,3.56,0,0,1,1.42.27,2.56,2.56,0,0,1,1.06.84l-.71.8a1.93,1.93,0,0,0-.77-.68,2.28,2.28,0,0,0-1-.2,2,2,0,0,0-.68.12,1.63,1.63,0,0,0-.6.39,2,2,0,0,0-.43.67,2.6,2.6,0,0,0-.16,1,2.24,2.24,0,0,0,.15.85,2.15,2.15,0,0,0,.4.64,2.86,2.86,0,0,0,.59.49,8,8,0,0,0,.7.39,9.15,9.15,0,0,1,.91.52,4.27,4.27,0,0,1,.81.69,3,3,0,0,1,.57.92A3.26,3.26,0,0,1,102.37,67.87Z" style="fill:#141414"/><path d="M6.35,70.84V59.23H7.5V69.77h3.31v1.07Z" style="fill:#141414"/><path d="M28.89,70.84V59.23h4.67v1H30v4.07h3.33v1H30v4.51h3.72v1Z" style="fill:#141414"/><path d="M51.16,71.12v-1L55.61,60H51.35V59h5.52v1L52.45,70H56.9v1.08Z" style="fill:#141414"/><path d="M192.78,69.81v1h-4.84V67.72l1.11,0v2.07Z" style="fill:#9f3b3c"/><path d="M192.61,59.23v1h-3.56v4.07h3.33v1h-3.33v2.45l-1.11,0V59.23Z" style="fill:#141414"/><path d="M169.15,67.24l1.46,3.59h-1.23l-1.46-3.73Z" style="fill:#9f3b3c"/><path d="M170.43,62.3a3.84,3.84,0,0,1-.19,1.27,2.89,2.89,0,0,1-.5.89,2.25,2.25,0,0,1-.67.55,2.2,2.2,0,0,1-.73.25l.8,2-1.23-.14-.64-1.64h-1.49v1.37l-1.13-.16V59.23h2.79a3.87,3.87,0,0,1,1.1.16,2.46,2.46,0,0,1,1,.51,2.66,2.66,0,0,1,.68,1A3.66,3.66,0,0,1,170.43,62.3Zm-1.12.06a2.79,2.79,0,0,0-.17-1,1.82,1.82,0,0,0-.46-.66,1.65,1.65,0,0,0-.66-.34,3,3,0,0,0-.76-.1h-1.47v4.35h1.52a1.91,1.91,0,0,0,1.47-.58A2.32,2.32,0,0,0,169.31,62.35Z" style="fill:#141414"/><path d="M165.79,66.83v4h-1.13V66.67Z" style="fill:#9f3b3c"/><path d="M148.75,65q0,.4,0,.78l-1.19-.23c0-.17,0-.36,0-.55a10.94,10.94,0,0,0-.17-2,5.77,5.77,0,0,0-.5-1.59,3.08,3.08,0,0,0-.83-1.06,1.71,1.71,0,0,0-1.13-.39,1.8,1.8,0,0,0-1.17.39,3,3,0,0,0-.83,1.06,6.29,6.29,0,0,0-.49,1.59,9.84,9.84,0,0,0-.15,1.47h-.07l-1.13-.17a10.65,10.65,0,0,1,.24-1.78,6.19,6.19,0,0,1,.74-1.92,3.73,3.73,0,0,1,1.21-1.24,3.07,3.07,0,0,1,1.65-.45,3,3,0,0,1,1.6.45,3.71,3.71,0,0,1,1.2,1.24,6.37,6.37,0,0,1,.75,1.92A10.87,10.87,0,0,1,148.75,65Z" style="fill:#141414"/><path d="M148.73,65.79a9.92,9.92,0,0,1-.24,1.71,6.54,6.54,0,0,1-.75,1.93,3.73,3.73,0,0,1-1.2,1.24,2.94,2.94,0,0,1-1.6.44,3,3,0,0,1-1.61-.44,3.77,3.77,0,0,1-1.22-1.24,6.36,6.36,0,0,1-.76-1.93,11,11,0,0,1-.27-2.49c0-.23,0-.46,0-.68l1.13.17h.07c0,.16,0,.33,0,.5a11,11,0,0,0,.17,2,6.5,6.5,0,0,0,.49,1.61,3,3,0,0,0,.83,1.08,1.84,1.84,0,0,0,1.17.39,1.81,1.81,0,0,0,1.15-.39,3,3,0,0,0,.82-1.08,6.21,6.21,0,0,0,.49-1.61,10.12,10.12,0,0,0,.15-1.43Z" style="fill:#9f3b3c"/><path d="M126.72,63.75v7.09h-1.13V63.69Z" style="fill:#9f3b3c"/><path d="M126.72,59.23v4.52l-1.13-.06V60.75h0l-.82,2.89-1,0L125,59.23Z" style="fill:#141414"/><path d="M124.72,63.64l-2,7.19h-1.06l-2-7.15,1,0L122.15,69h.06l1.51-5.42Z" style="fill:#9f3b3c"/><path d="M119.37,59.23l1.25,4.42-1,0-.82-2.94h0v3h-.13l-1,.08V59.23Z" style="fill:#141414"/><path d="M118.75,63.74v7.1h-1.08v-7l1-.08Z" style="fill:#9f3b3c"/><path d="M192.21,42.07c-9.54-5.28-13.06-14.28-13.06-14.72,0-.68.54-.68,1.08-.68h9.49c1.71,0,2.64,0,2.64-.73s-3.52-3.86-4.26-3.86c-.49,0-1.71,2.1-2,2.49-.68.83-.93.83-3.13.83h-3.42c-1.47,0-1.47-.34-1.47-3.62,0-.78,0-4.55.15-5s1-.64,1.42-.64H191c1.71,0,2.64,0,2.64-.73s-4.06-4.21-4.7-4.21-2,2.4-2.3,2.84c-.68.83-.93.83-3.13.83h-3.77c-.64,0-1.47,0-1.61-1V9.3c0-1.08.2-1.32.59-1.71.73-.68.83-1,.83-1.37,0-.68-.59-.88-1-1a23,23,0,0,0-3.86-1c-.15,0-.54,0-.54.34,0,.49.68,2.79.73,3.33.15,1,.15,3.47.15,4.45,0,1.91,0,2.49-1.27,2.49h-3.18c-2.25,0-4.3-.1-6.7-.2-.29,0-1.81-.15-2.15-.15-.1,0-.15,0-.15.1s0,.1.2.34l.93,1.12c.2.2.29.29.44.29s.88-.1,1-.1c1-.1,2.69-.15,6.21-.15h3.28c.34,0,1,0,1.22.59s.2,5.82.2,6.8c0,1.22,0,1.91-1.27,1.91h-2.89c-2.3,0-4.3-.1-6.7-.2-.34,0-1.81-.15-2.15-.15-.1,0-.2,0-.2.1s0,.1.2.34l1,1.13c.15.2.24.29.44.29s.83-.1,1-.1c1.32-.1,3.08-.15,6.16-.15h1c.83,0,1.32,0,1.32.78,0,1-3.52,8.36-9.1,14.77-.59.68-4,4.21-4,4.3s.1.15.15.15c1.52,0,8.9-5.67,13.3-13.16.24-.39,1.17-2,1.42-2s.29.2.29,1c0,6.65,0,7.39-.2,12.38,0,.64,0,1.42,0,2s0,2.1,1.32,2.1c.44,0,2.4-.44,2.4-3.33,0-.34-.59-13.26-.59-15.75,0-.1,0-.39.24-.39s.83,1.61.93,1.91c3.67,9.15,8.85,14.28,9.64,14.28a2,2,0,0,0,.83-.44,4.55,4.55,0,0,1,1.1-.61,6.72,6.72,0,0,1,.85-.26l.4-.06c.39-.1,3-.39,3.67-.44C195.38,43.59,192.69,42.37,192.21,42.07Z" style="fill:#141414"/><path d="M158.81,10.66a1.87,1.87,0,0,1-1.88,1.88c-1.09,0-1.33-.39-3.06-3.81-.3-.54-1.83-3.16-1.78-3.21C152.39,5.13,158.81,7,158.81,10.66Z" style="fill:#141414"/><path d="M149,15.46c2.13,0,6.53,1.78,6.53,4.45a1.71,1.71,0,0,1-1.68,1.93c-.89,0-1-.3-2.57-2.72a26.93,26.93,0,0,0-2.62-3.21s-.15-.25-.1-.35A1.18,1.18,0,0,1,149,15.46Z" style="fill:#9f3b3c"/><path d="M156,35.28c0-1.88,2.42-14.09,2.42-14.88,0-.1,0-.25-.15-.25s-.3.2-.4.49c-.38,1.09-.88,2.51-1.43,4-1.72,3.84-4.46,8.9-7.34,10.05-.32.06-.54.11-.53.17s.74.35.79.4c4,1.83,4.25,3.31,4.25,10.33,0,.25,0,3.31,2.17,3.31a2.65,2.65,0,0,0,2.37-2.67,14.6,14.6,0,0,0-.69-3.66C156.39,38.34,156,37,156,35.28Z" style="fill:#141414"/><path d="M34.32,14.34c-.83,0-1.52.34-1.52,1.27,0,1.37.2,7.63.2,8.9a2.14,2.14,0,0,1-2.1,2.4c-1.42,0-1.47-1.27-1.47-2.45,0-1.42,0-7.58,0-8.85s-.88-1.27-1.32-1.27H20.53a1.39,1.39,0,0,0-1.47,1.08c-.39,1.32-1,3.47-2.84,3.47A1.81,1.81,0,0,1,14.46,17c0-.83.2-1,1.71-2.84a6,6,0,0,0,1.37-3.72c0-.15,0-.34.15-.34.39,0,.64.44,1.47,2.15a1.29,1.29,0,0,0,1.32.78H28c.73,0,1.47-.1,1.47-1.42,0-2.4,0-3-1.47-3h-2.4c-4.26,0-5.53,0-6,.1-.15,0-1,.15-1.17.15s-.29-.15-.44-.34l-.93-1.12c-.2-.2-.24-.24-.24-.29S16.91,7,17,7c.34,0,1.86.15,2.15.2,2.4.1,4.4.15,6.7.15H39.94c2.35,0,2.69,0,3.13-.83C44,5,44.05,4.8,44.44,4.8S48.31,7.35,48.31,8s-1,.69-2.64.69H34.27c-1.42,0-1.42.64-1.42,3a1.26,1.26,0,0,0,1.47,1.37H44a1.51,1.51,0,0,0,1.27-.54c.54-.73.59-.83.73-.83s4.5,2.69,4.5,3.62-.88.93-2.49,1.08a5.32,5.32,0,0,0-2.64,1.52,15.89,15.89,0,0,1-1.47,1.27c-.1,0-.1-.1-.1-.15,0-.39,1-3.33,1-3.91s-.44-.78-1-.78Z" style="fill:#141414"/><path d="M38.62,34.84c-.64,0-1.32.15-1.47.83-.1.34-.15,3.91-.15,4.55,0,.88.1,4.79.1,5.58a1.8,1.8,0,0,1-2.05,1.86c-1.27,0-1.37-.49-1.37-1.27,0-1.08.1-6,.1-6.95,0-4.11,0-4.6-1.52-4.6H31c-.93,0-1.32.34-1.42.83s-.15,2.94-.15,4.7c0,.88.1,4.75.1,5.53a1.8,1.8,0,0,1-2.05,1.86c-1.27,0-1.37-.54-1.37-1.27,0-.93.1-4.94.1-5.77,0-5.62,0-5.87-1.47-5.87H23.51c-1.66,0-1.66.59-1.66,3.47,0,.88,0,3.33,0,5,0,.54.2,2.89.2,3.37,0,1.42-.54,2.2-2.15,2.2-1.12,0-1.37-.68-1.37-1.86,0-.54.1-4.35.1-5.09a63.62,63.62,0,0,0-.34-7.78c0-.34-.44-1.71-.44-2s.34-.34.54-.34A6,6,0,0,1,21.11,33a4.52,4.52,0,0,0,2.59.59h3.42a1.45,1.45,0,0,0,1.57-1,13.33,13.33,0,0,0,.64-2.4,1,1,0,0,0-1.12-1.08H24c-4.3,0-5.72.1-6.16.15-.2,0-.88.1-1,.1s-.29-.1-.44-.29l-1-1.12c-.15-.24-.2-.24-.2-.34s0-.1.2-.1c.34,0,1.81.15,2.15.15,2.4.1,4.4.2,6.7.2H40.68c2.05,0,2.69-.1,3.13-.83,1-1.56,1.08-1.76,1.57-1.76s3.33,2.45,3.33,3.13-.88.73-2.64.73H35c-1.81,0-2.25.59-2.69,1.17a20.57,20.57,0,0,0-2.2,2.89c0,.34.29.39.49.39H40.87a2.29,2.29,0,0,0,1.47-.39c.15-.1.83-.73,1-.73s3.52,1.66,3.52,2.45c0,.34-.24.59-.78,1s-.49.69-.49,1.42c0,1,.24,5.23.24,6.11,0,2-.34,3.18-1.52,4.21a3.8,3.8,0,0,1-2,1c-.34,0-1.12-1.42-1.27-1.61a6.14,6.14,0,0,0-2.59-1.81c-.1,0-.29-.15-.29-.24s.44-.2.59-.2a16,16,0,0,0,2.64-.2c.78-.1,1.08-.39,1.08-4.55,0-4.89,0-5.18-1.52-5.18Z" style="fill:#141414"/><path d="M5.6,34.29c1.68-.84,4.7-9.54,6.13-13.64.1-.3.3-.49.4-.49s.15.15.15.25c0,.79-2.42,13-2.42,14.88,0,1.68.35,3.06,1.48,7.32A14.59,14.59,0,0,1,12,46.25a2.65,2.65,0,0,1-2.37,2.67c-2.17,0-2.17-3.06-2.17-3.31,0-7-.25-8.5-4.25-10.33,0,0-.79-.35-.79-.4S5.15,34.49,5.6,34.29Z" style="fill:#141414"/><path d="M12.62,10.66a1.87,1.87,0,0,1-1.88,1.88c-1.09,0-1.33-.39-3.06-3.81-.3-.54-1.83-3.16-1.78-3.21C6.19,5.13,12.62,7,12.62,10.66Z" style="fill:#141414"/><path d="M2.78,15.46c2.13,0,6.53,1.78,6.53,4.45a1.71,1.71,0,0,1-1.68,1.93c-.89,0-1-.3-2.57-2.72A26.93,26.93,0,0,0,2.43,15.9s-.15-.25-.1-.35A1.18,1.18,0,0,1,2.78,15.46Z" style="fill:#141414"/><path d="M39.59,21.79a12.07,12.07,0,0,1-4.4-.75,24.43,24.43,0,0,1-4.43-2c-.12-.08-1.43-.82-1.86-1a10,10,0,0,0-6.1-.88,6,6,0,0,0-4.54,3.46h0l-.45,1.74a.24.24,0,0,0,.39.24,10.07,10.07,0,0,1,5.86-2.33h0a13,13,0,0,1,2.7.15c.47.08,1,.18,1.53.31a14.51,14.51,0,0,1,2.4.95c1.29.73,3.47,2,4.44,2.57l.48.24h0a7.32,7.32,0,0,0,10.55-4.2l.19-.42C46.3,20,44.4,21.46,39.59,21.79Z" style="fill:#9f3b3c"/><path d="M39.74,19.83c-2,.25-4.17-.72-5.88-1.68A7.86,7.86,0,0,0,38.37,18a26.62,26.62,0,0,0,2.69-1.22c.48-.22,1.17-.44,1.3.33C42.74,19.35,40.69,19.71,39.74,19.83Z" style="fill:#141414"/><path d="M12.2,20.15S7.48,33.76,2.51,34.88l4.84.69Z" style="fill:#141414"/><path d="M110.67,33.36a13.69,13.69,0,0,1-9.26-5.82l-.06-.1a12.6,12.6,0,0,1-.81-12.09A33.44,33.44,0,0,1,106,7.06l-.28-.27a10,10,0,0,1-4.63,2.63L101,9.5a5.3,5.3,0,0,0-1.68,1.4l-.25.57-.17,1c-.21,1.27-.43,2.55-.57,3.83s-.22,2.57-.23,3.9a13.22,13.22,0,0,1-.57-3.94,23,23,0,0,1,.36-4c0-.22.09-.45.13-.67A5.21,5.21,0,0,0,95.73,9.3v0L94.79,9h0a6,6,0,0,1-1.58-.87L93,7.91l-.11.39a20.35,20.35,0,0,0,5.22,19.91l.39.39h0c8.41,8.18,17.7,8.17,22.3,7.07a3.35,3.35,0,0,0,1.13-.47,3.4,3.4,0,0,0,1.32-4l-.08-.23-.21.12q-.71.42-1.46.78A17.59,17.59,0,0,1,110.67,33.36Z" style="fill:#141414"/><path d="M69.91,10.73a20.76,20.76,0,0,1,6.9-.3,1.17,1.17,0,0,0,1.32-1.31c0-.17,0-.33,0-.5a22.14,22.14,0,0,1-2.7-1.24c.92.17,1.82.35,2.73.54a6,6,0,0,1,1.59-3.55l.12,0s-1.59-1.26-7,3.1a25.91,25.91,0,0,1-2.8,1.75l-.62.62A.52.52,0,0,0,69.91,10.73Z" style="fill:#141414"/><path d="M131.83,30.42a8.91,8.91,0,0,0-.86-.23h0a1.07,1.07,0,0,1-.36,1.06,1.53,1.53,0,0,1-2.6-1.06,1.47,1.47,0,0,1,.06-.39v0a8.48,8.48,0,0,0-3.15.63,3.42,3.42,0,0,1,.31,1.31,4.75,4.75,0,0,1-3.83,5.23,22.33,22.33,0,0,1-9.22.11,10,10,0,0,0,1.56.53,17.89,17.89,0,0,0,17.34-4.68l1.08-1.08A.85.85,0,0,0,131.83,30.42Z" style="fill:#9f3b3c"/><path d="M66.45,18.85a22.29,22.29,0,0,1,9-.14s0,0,0,0a12.11,12.11,0,0,0-1.4-.46,17.89,17.89,0,0,0-17.33,4.68l-1.06,1.06A.87.87,0,0,0,56,25.38c.27.09.55.16.83.22h0a1.21,1.21,0,0,1,.52-1.18,1.51,1.51,0,0,1,2.44,1.18,1.47,1.47,0,0,1-.06.39v0a8.43,8.43,0,0,0,3.13-.62,0,0,0,0,0,0,0,3.5,3.5,0,0,1-.3-1.3A4.75,4.75,0,0,1,66.45,18.85Z" style="fill:#9f3b3c"/><path d="M126.73,38.12l-.1.09Z" style="fill:#e2b36c"/><path d="M61.11,18.64l-.1.09Z" style="fill:#e2b36c"/><path d="M72.9,23.64c-2.7-.33-5.52,1-7.8,2.22a10.42,10.42,0,0,1,6,.25,35.28,35.28,0,0,1,3.56,1.62c.63.3,1.54.59,1.72-.44C76.88,24.28,74.16,23.8,72.9,23.64Z" style="fill:#141414"/><path d="M114.89,32c2.7.33,5.52-1,7.8-2.22a10.42,10.42,0,0,1-6-.25A35.28,35.28,0,0,1,113.14,28c-.63-.3-1.54-.59-1.72.44C110.91,31.4,113.63,31.89,114.89,32Z" style="fill:#141414"/><path d="M77,22.33a13.71,13.71,0,0,1,9.33,5.84l.06.1a12.6,12.6,0,0,1,.81,12.09,32,32,0,0,1-3.46,5.81l-1.39,1.75h0l0,0-.59.74.25.24c.22-.22.45-.42.68-.61h0l.13-.11.14-.12h0c.38-.27,1-.67,1-.67h0a9.9,9.9,0,0,1,2.7-1.12l.15-.09a5.14,5.14,0,0,0,1.05-.75,5.17,5.17,0,0,0,.82-1.68c0-.18.07-.35.1-.53l.17-1c.21-1.27.43-2.55.57-3.83s.22-2.57.23-3.9a13.23,13.23,0,0,1,.57,3.94,23,23,0,0,1-.36,4c-.08.43-.17.86-.27,1.28a2.89,2.89,0,0,0,.38.88h0a5.29,5.29,0,0,0,.58.74l.19.19.07.06h0a6.9,6.9,0,0,0,1.09.81h0v0a7.19,7.19,0,0,1,1.44.53l.22.11.11.07c.18.1.37.22.57.36h0a2.62,2.62,0,0,1,.35.32,5.4,5.4,0,0,0,.28-.78c.06-.22.11-.45.16-.67h0c.08-.37.15-.74.21-1.1s.07-.43.1-.65c.1-.73.15-1.28.15-1.28A20.38,20.38,0,0,0,89.6,27.48l-.38-.37h0C80.49,19,70.86,18.89,67.2,20a4.69,4.69,0,0,0-1.56.64,3.39,3.39,0,0,0-1.18,3.87l.08.23.21-.12q.7-.41,1.43-.77A17.59,17.59,0,0,1,77,22.33Z" style="fill:#141414"/><path d="M130.58,18.24a5.22,5.22,0,0,0,4.21,9,3.44,3.44,0,0,1-.37,1.78l3.1-2.94h0l.27-.23a5.22,5.22,0,1,0-7.18-7.58Z" style="fill:#e2b36c"/><polygon points="137.52 26.05 137.76 25.82 137.52 26.05 137.52 26.05" style="fill:#e2b36c"/><path d="M143,22.7l.08-.07Z" style="fill:#e2b36c"/><path d="M126.63,37.72c-.75.64-6.92,4.2-17.61.38a28.43,28.43,0,0,1-8.79-5.77,57.56,57.56,0,0,1-7.69-8.44c-.19-.28-2.32-3.11-3.06-3.93-4.84-5.35-9.53-7-12.35-7.64a14.08,14.08,0,0,0-13.06,3.19h0l-3,2.64c.74-.63,6.44-3.83,17-.57a30.55,30.55,0,0,1,5.71,2.88c.94.6,2,1.31,3,2.12a34.16,34.16,0,0,1,4.29,4.31c2.1,2.78,5.59,7.64,7.16,9.71.26.34.53.66.81,1h0a17.22,17.22,0,0,0,26.71.86Zm-15.72,5.82h0Zm.59.08h0Zm.59.07h0Zm.57.05h0Zm1.63.07h0Zm-1.07,0h0Zm.55,0h0Zm3.48-.23-.31.06Zm-.45.08-.23,0Zm-.41.06-.21,0Zm-.44,0-.21,0Zm-.47,0h0Zm-.49,0h0Zm6.83-2.07.71-.5Zm1.85-1.38-.78.6.78-.6,1.13-1Z" style="fill:#e2b36c"/></g></svg>