<svg xmlns="http://www.w3.org/2000/svg" viewBox="0 0 32 32"><title>mail</title><g id="2d69c706-5a2f-4914-991a-e6ec20d19995" data-name="圖層 4"><path d="M16,0A16,16,0,1,0,32,16,16,16,0,0,0,16,0Zm8.75,20.92a1.64,1.64,0,0,1-1.64,1.64H8.89a1.64,1.64,0,0,1-1.64-1.64v-7a.2.2,0,0,1,.33-.16c.77.59,1.78,1.35,5.27,3.88.72.53,1.94,1.63,3.15,1.63s2.46-1.12,3.15-1.63c3.49-2.53,4.5-3.29,5.26-3.89a.21.21,0,0,1,.33.16Zm0-9.19a.82.82,0,0,1-.31.65c-1,.82-1.39,1.11-5.93,4.4-.57.42-1.72,1.43-2.51,1.42s-1.93-1-2.51-1.42C9,13.48,8.61,13.19,7.56,12.37a.82.82,0,0,1-.31-.65v-.65A1.64,1.64,0,0,1,8.89,9.44H23.11a1.64,1.64,0,0,1,1.64,1.64Z" style="fill:#fff"/></g></svg>