<svg xmlns="http://www.w3.org/2000/svg" xmlns:xlink="http://www.w3.org/1999/xlink" viewBox="0 0 1691.92 464.98"><defs><linearGradient id="623c50b1-6952-46e3-898f-b4568171edce" x1="704.43" y1="211.13" x2="738.69" y2="211.13" gradientUnits="userSpaceOnUse"><stop offset="0" stop-color="#d293ae"/><stop offset="1" stop-color="#ffb8a3"/></linearGradient><linearGradient id="e423bc15-b502-4c8e-8839-e65e65f45892" x1="766.18" y1="225.25" x2="803.07" y2="225.25" xlink:href="#623c50b1-6952-46e3-898f-b4568171edce"/><linearGradient id="55232378-72b1-4a0d-b60f-97b5df61a5f0" x1="1695.83" y1="66.99" x2="1672.03" y2="458.27" gradientTransform="matrix(-1, -0.02, -0.02, 1, 2554.13, 14.71)" gradientUnits="userSpaceOnUse"><stop offset="0" stop-color="#fff"/><stop offset="1" stop-color="#fff" stop-opacity="0"/></linearGradient><linearGradient id="6ace24b3-0f80-46e2-9e86-237177e81869" x1="707.59" y1="240.28" x2="707.59" y2="299.75" gradientUnits="userSpaceOnUse"><stop offset="0" stop-color="#edafad"/><stop offset="1" stop-color="#ffeae3" stop-opacity="0"/></linearGradient><linearGradient id="6b57774a-7192-42fc-aaf9-6b456799e079" x1="950.33" y1="240.28" x2="950.33" y2="299.75" xlink:href="#6ace24b3-0f80-46e2-9e86-237177e81869"/><linearGradient id="3225f14a-4928-4a2c-ad5f-ee6d1b6baf30" x1="900.06" y1="240.28" x2="900.06" y2="299.75" xlink:href="#6ace24b3-0f80-46e2-9e86-237177e81869"/><linearGradient id="5b322a42-4b5d-4f46-b177-0ba69a1e6466" x1="722.78" y1="240.28" x2="722.78" y2="299.75" xlink:href="#6ace24b3-0f80-46e2-9e86-237177e81869"/><linearGradient id="29033001-d1cb-4fb9-b1c7-4bd1b704f0da" x1="844.38" y1="240.28" x2="844.38" y2="299.75" xlink:href="#6ace24b3-0f80-46e2-9e86-237177e81869"/><linearGradient id="716016ab-aa08-4f99-9111-49b4ea91d6af" x1="759.13" y1="240.28" x2="759.13" y2="299.75" xlink:href="#6ace24b3-0f80-46e2-9e86-237177e81869"/><linearGradient id="fa636ff3-3b85-4bf2-9505-36c89530ca06" x1="784.07" y1="240.28" x2="784.07" y2="299.75" xlink:href="#6ace24b3-0f80-46e2-9e86-237177e81869"/><clipPath id="a8518ea0-8d69-4306-b759-d848700532c3"><path d="M908.73,224.79s39.82,3.73,11.57,10.79S845,252.05,837.91,256.76c-14.56,9.71,30.6,8.24,31.78,23.54.9,11.74-50.61,23.54-107.1,23.54s-26.82,19.54-60,31.78c-22.36,8.24-88.27,9.42-94.16,0s-7.06-7.06-33-8.24-34.13-11.77-18.83-16.48,30.6-8.24,24.72-18.83-12.36-23.74,40-24.32c42.37-.48,62.38-7.45,55.32-18s58.46-27.85,96.32-32.76,56.69-14.32,56.69-14.32l40,3.53Z" style="fill:none"/></clipPath><linearGradient id="48717e22-c496-4d6e-97dd-5986f0cb02d4" x1="706.63" y1="346.73" x2="707.96" y2="197.39" gradientTransform="matrix(1, 0, 0, 1, 0, 0)" xlink:href="#55232378-72b1-4a0d-b60f-97b5df61a5f0"/><clipPath id="ce33822a-0095-42e0-b869-53579dfa6a11"><path d="M673.92,212.25s-9.3-10.23-8.37-13,17.67-13,32.54-15.81,45.56,6.51,45.56,6.51l3.75,10.51a4.46,4.46,0,0,1-.88,4.48l-6.59,7.32S693.45,215,673.92,212.25Z" style="fill:none"/></clipPath><linearGradient id="3e16c4c4-06ca-459e-9f56-c91e82c165ac" x1="705.72" y1="212.75" x2="705.72" y2="173.36" gradientUnits="userSpaceOnUse"><stop offset="0" stop-color="#ffbdc7"/><stop offset="1" stop-color="#fff4b2"/></linearGradient><linearGradient id="e6ccfe0b-fc6e-4eb1-92ea-c3c52ae2050f" x1="708.47" y1="220.8" x2="708.47" y2="185.81" xlink:href="#3e16c4c4-06ca-459e-9f56-c91e82c165ac"/><clipPath id="edc3c631-0162-4a1e-a566-8d1f74f860c8"><path d="M897.31,211.56s-14.52-16-13.07-20.33,27.59-20.33,50.82-24.68,71.15,10.16,71.15,10.16l5.86,16.42a7,7,0,0,1-1.38,7l-10.29,11.43S927.8,215.91,897.31,211.56Z" style="fill:none"/></clipPath><linearGradient id="dcc38bf0-7399-4997-8e34-b6dc05f98137" x1="949.85" y1="224.48" x2="949.85" y2="134.74" xlink:href="#3e16c4c4-06ca-459e-9f56-c91e82c165ac"/><linearGradient id="3c973d79-bbb2-424b-ab3b-f53df5958473" x1="948.85" y1="200.5" x2="948.85" y2="216.29" xlink:href="#3e16c4c4-06ca-459e-9f56-c91e82c165ac"/><clipPath id="ed85bfb0-768e-4706-aad0-4f2a99349457"><path d="M828.86,87c-8.18-15.32-26.45-21.59-37.15-35C780.17,37.56,783,22.91,786.9,6.73c-15.59,11.21-24.47,24.4-18.83,43.87,4.7,16.24,16.48,28.19,23.2,43.67,6.6,15.21,7,33.42,1.7,49-5.43,16-7.91,31.92-.82,48,6.91,15.62,20.87,15.95,31,26.39l-.36-2.06c-6.74-8.84-12.18-29.19-11.29-41.3,1.26-17.19,19.06-28.59,22.93-45.64C837.22,116.11,835,98.38,828.86,87Z" style="fill:none"/></clipPath><linearGradient id="27f9605c-6570-463f-86e3-e58753e0ce5d" x1="553.82" y1="400.1" x2="527.55" y2="226.34" gradientTransform="matrix(0.69, 0.03, -0.02, 0.91, 439.47, -153.27)" gradientUnits="userSpaceOnUse"><stop offset="0" stop-color="#dab1c7" stop-opacity="0"/><stop offset="1" stop-color="#c2c3dc"/></linearGradient><clipPath id="10a50008-4b34-4b58-bdf4-9f576b2e4710"><path d="M793.91,216.56c3.07-24-18.44-51.8-39-61.46-33.76-15.85-64.62,15.62-96,2-13.38-5.8-27.07-17.4-33-30.93,29.73,15.38,56.82,5.9,87.66,2.82,27.25-2.72,59.46,13.57,74.41,36.73,8.82,13.67,7.49,31,5.7,46.86" style="fill:none"/></clipPath><linearGradient id="d9801613-f658-424f-b268-bf4cc0b37ce2" x1="34.93" y1="-179.19" x2="-56.87" y2="-335.73" gradientTransform="translate(670.7 416.4) rotate(13.23)" gradientUnits="userSpaceOnUse"><stop offset="0" stop-color="#ffe9d0" stop-opacity="0"/><stop offset="1" stop-color="#ffe2b6"/></linearGradient><linearGradient id="fa41fddb-4294-4ce9-b811-37187eb01e9d" x1="563.55" y1="196.12" x2="484.84" y2="61.92" gradientTransform="translate(160.97 109.57) rotate(-5.08)" xlink:href="#d9801613-f658-424f-b268-bf4cc0b37ce2"/><clipPath id="8ea94fcd-e1df-4c2a-8a18-dc39bfe985d0"><path d="M834.32,216.92s-28.64-30.39-17.78-50,33.74-18.16,31.58-39.93c-2.28-22.91,15.12-33.47,31-42.21,25.71-14.14,24.48-34,24.48-34S920.5,75.83,893,97.17c-19.93,15.48.44,37-34.69,57.18s-13.07,65.06-13.07,65.06Z" style="fill:none"/></clipPath><linearGradient id="6d65f270-ae4d-4178-a0fa-d168c9822816" x1="1218.28" y1="304.67" x2="1250.61" y2="131.57" gradientTransform="matrix(0.99, -0.12, 0.12, 0.99, -395.02, 75.25)" gradientUnits="userSpaceOnUse"><stop offset="0" stop-color="#ffc0c7" stop-opacity="0"/><stop offset="1" stop-color="#ffb8a3"/></linearGradient><linearGradient id="e75ea0b1-24b5-4a40-be38-d0efb136cbc6" x1="1189.81" y1="286.3" x2="1223.75" y2="104.55" gradientTransform="translate(-268.12 -257.83) rotate(9.37)" xlink:href="#6d65f270-ae4d-4178-a0fa-d168c9822816"/><linearGradient id="f0d58792-7ce4-4e85-96ea-745a4a02b8cd" x1="1236.34" y1="-3674.44" x2="1317.99" y2="-3674.44" gradientTransform="translate(2555.69 -3331.46) rotate(-171.43)" gradientUnits="userSpaceOnUse"><stop offset="0" stop-color="#c6b1c7" stop-opacity="0"/><stop offset="1" stop-color="#c2badc"/></linearGradient><clipPath id="4d4a630b-32a3-419c-aa32-5ee417d707a6"><path d="M738.69,213.89s-3-11.1-10.35-10.89-17.7,1.48-21.63,6.74-1.57,6.6-1.57,6.6,1.11,1.88,5.32,2.72,24.37-1.12,24.37-1.12Z" style="fill:url(#623c50b1-6952-46e3-898f-b4568171edce)"/></clipPath><linearGradient id="20c8708e-91f2-42ea-9262-13c5c88e9c63" x1="721.65" y1="220.53" x2="721.65" y2="201.24" xlink:href="#623c50b1-6952-46e3-898f-b4568171edce"/><linearGradient id="94d08bde-a67c-44c1-9868-b1a495efd42a" x1="723.39" y1="222.69" x2="723.39" y2="213.57" xlink:href="#623c50b1-6952-46e3-898f-b4568171edce"/><linearGradient id="a6328727-505d-472a-9ba3-680636f6822b" x1="-1183.17" y1="-1505.45" x2="-1101.53" y2="-1505.45" gradientTransform="matrix(0.42, -0.91, 0.91, 0.42, 2737.98, -265.62)" xlink:href="#f0d58792-7ce4-4e85-96ea-745a4a02b8cd"/><clipPath id="e4c0d31e-5ea4-41a4-8657-82636f0beeac"><path d="M735.42,224.13s-6.94-7.64-6.25-9.72,13.19-9.72,24.3-11.8,34,4.86,34,4.86l2.8,7.85a3.33,3.33,0,0,1-.66,3.34l-4.92,5.47S750,226.21,735.42,224.13Z" style="fill:none"/></clipPath><linearGradient id="d803cfed-daf3-439d-afdd-832a5c24eba4" x1="758.85" y1="237.02" x2="758.85" y2="173.31" xlink:href="#3e16c4c4-06ca-459e-9f56-c91e82c165ac"/><linearGradient id="9cd4f2b0-73e3-41ae-be18-2f2b42974731" x1="758.85" y1="231.97" x2="758.85" y2="197.87" xlink:href="#3e16c4c4-06ca-459e-9f56-c91e82c165ac"/><clipPath id="2b8e2ca8-5120-4782-8740-54e8ad6f99db"><path d="M803.07,228.22s-3.28-12-11.15-11.72-19.06,1.59-23.29,7.26-1.69,7.11-1.69,7.11,1.2,2,5.73,2.93,26.24-1.21,26.24-1.21Z" style="fill:url(#e423bc15-b502-4c8e-8839-e65e65f45892)"/></clipPath><linearGradient id="060c9e4a-5774-467f-b363-59c384736d8e" x1="784.72" y1="235.38" x2="784.72" y2="214.61" xlink:href="#623c50b1-6952-46e3-898f-b4568171edce"/><linearGradient id="446940e1-d9a5-4b60-9c00-479501679d85" x1="786.6" y1="237.7" x2="786.6" y2="227.88" xlink:href="#623c50b1-6952-46e3-898f-b4568171edce"/></defs><title>背景插圖-切圖板</title><g style="isolation:isolate"><g id="e4d08609-b8b3-4c5e-add8-20317002fdb7" data-name="圖層 4"><path d="M1714.38,212S108.33,194.47,234.12,208.51s259.46,35.23,96.29,44.57S-103.11,281,60.67,295.7,75.44,372,198.29,382s91.55,28.49,147.49,32.4S1733.38,460,1733.38,460Z" style="opacity:0.48;fill:url(#55232378-72b1-4a0d-b60f-97b5df61a5f0)"/><g style="opacity:0.45"><path d="M674.93,211.18s-9.3,8.26-8.37,10.51,17.67,10.51,32.54,12.77,45.56-5.26,45.56-5.26l3.75-8.49a3.09,3.09,0,0,0-.88-3.62l-6.59-5.91S694.46,208.93,674.93,211.18Z" style="fill:url(#6ace24b3-0f80-46e2-9e86-237177e81869)"/><path d="M899.33,212.06s-14.52,16-13.07,20.33,27.59,20.33,50.82,24.68,71.15-10.16,71.15-10.16l5.86-16.42a7,7,0,0,0-1.38-7l-10.29-11.43S929.82,207.7,899.33,212.06Z" style="fill:url(#6b57774a-7192-42fc-aaf9-6b456799e079)"/><path d="M849.06,235.2s-14.52,16-13.07,20.33,27.59,20.33,50.82,24.68S958,270,958,270l5.86-16.42a7,7,0,0,0-1.38-7L952.15,235.2S879.55,230.84,849.06,235.2Z" style="fill:url(#3225f14a-4928-4a2c-ad5f-ee6d1b6baf30)"/><path d="M740,223.1s-3.07,12-10.41,11.72-17.8-1.59-21.75-7.26-1.58-7.11-1.58-7.11,1.12-2,5.35-2.93,24.5,1.21,24.5,1.21Z" style="fill:url(#5b322a42-4b5d-4f46-b177-0ba69a1e6466)"/><path d="M862.82,249.65s-3.28,12-11.15,11.72-19.06-1.59-23.29-7.26-1.69-7.11-1.69-7.11,1.2-2,5.73-2.93,26.24,1.21,26.24,1.21Z" style="fill:url(#29033001-d1cb-4fb9-b1c7-4bd1b704f0da)"/><path d="M734.75,223.06s-6.94,7.64-6.25,9.72,13.19,9.72,24.3,11.8,34-4.86,34-4.86l2.8-7.85a3.33,3.33,0,0,0-.66-3.34L784,223.06S749.33,221,734.75,223.06Z" style="fill:url(#716016ab-aa08-4f99-9111-49b4ea91d6af)"/><path d="M802.51,237.84s-3.28,12-11.15,11.72-19.06-1.59-23.29-7.26-1.69-7.11-1.69-7.11,1.2-2,5.73-2.93,26.24,1.21,26.24,1.21Z" style="fill:url(#fa636ff3-3b85-4bf2-9505-36c89530ca06)"/></g><g style="clip-path:url(#a8518ea0-8d69-4306-b759-d848700532c3)"><rect x="528.09" y="184.6" width="358.46" height="169.47" style="opacity:0.73;fill:url(#48717e22-c496-4d6e-97dd-5986f0cb02d4)"/></g><g style="clip-path:url(#ce33822a-0095-42e0-b869-53579dfa6a11)"><rect x="655.35" y="181.25" width="100.75" height="36.25" style="fill:url(#3e16c4c4-06ca-459e-9f56-c91e82c165ac)"/><polygon points="664.35 198 670.6 203.25 682.85 208.5 739.1 208 751.85 201.75 752.6 213.25 715.35 217.5 667.6 215 664.35 198" style="opacity:0.56;mix-blend-mode:multiply;fill:url(#e6ccfe0b-fc6e-4eb1-92ea-c3c52ae2050f)"/></g><g style="clip-path:url(#edc3c631-0162-4a1e-a566-8d1f74f860c8)"><rect x="876.85" y="166" width="146" height="50" style="fill:url(#dcc38bf0-7399-4997-8e34-b6dc05f98137)"/><polygon points="873.85 190.5 907.85 201.5 955.85 205.5 993.35 204.5 1016.85 196 1023.85 209 992.35 221.5 893.85 217 873.85 190.5" style="opacity:0.39;mix-blend-mode:multiply;fill:url(#3c973d79-bbb2-424b-ab3b-f53df5958473)"/></g><g style="clip-path:url(#ed85bfb0-768e-4706-aad0-4f2a99349457)"><rect x="758.78" y="-4.28" width="82.45" height="226.28" transform="translate(-3.22 27.04) rotate(-1.93)" style="fill:url(#27f9605c-6570-463f-86e3-e58753e0ce5d)"/></g><g style="clip-path:url(#10a50008-4b34-4b58-bdf4-9f576b2e4710)"><rect x="654.95" y="64.53" width="124.74" height="186.83" transform="translate(54.89 475.24) rotate(-38.01)" style="fill:url(#d9801613-f658-424f-b268-bf4cc0b37ce2)"/><path d="M621.61,124.41s32.85,30.71,65,25.34S778,116.52,801.54,222.86L640.82,255.72l-46.64-61.61Z" style="mix-blend-mode:multiply;fill:url(#fa41fddb-4294-4ce9-b811-37187eb01e9d)"/></g><g style="clip-path:url(#8ea94fcd-e1df-4c2a-8a18-dc39bfe985d0)"><rect x="822.46" y="31.56" width="69.72" height="203.63" transform="translate(84.88 -261.74) rotate(18.25)" style="fill:url(#6d65f270-ae4d-4178-a0fa-d168c9822816)"/><path d="M903.15,44.52s6.53,24.9-9.88,41.44-26.12,13.93-29,34.73-22.73,24.12-38.15,46.91c-5.78,8.54-3.2,56.23,45.71,60.76L976.87,36.92Z" style="opacity:0.58;mix-blend-mode:multiply;fill:url(#e75ea0b1-24b5-4a40-be38-d0efb136cbc6)"/></g><path d="M782.68,137.87a23.3,23.3,0,0,0-22.56-28.25h0c-.56,0-1.13-.08-1.71-.09-3.52,0-11.61.14-16.32.11a46.21,46.21,0,0,1-8.14-1.16c-1.73-.5-3.32-1-4.73-1.55a41.33,41.33,0,0,1-7.74-3.86c-12.11-8.83-13.25-17.61-13.17-18.91l-.46,5.35h0c-.48,3.3.08,10.77,7.11,16.73,3,2.53,8.56,6.28,18.27,7.2,1.49.14,6.28.16,6.74.14a77.87,77.87,0,0,1,15.37,1.5c4.92,1,9.08,2.17,13.37,4.86,12.8,8.49,13.93,18.07,13.85,19.39Zm-6.51-20.26,0,0Zm.6.61-.07-.07Zm.57.61-.09-.1Zm.54.61-.11-.13Zm1.43,1.77-.14-.19Zm-.92-1.17-.13-.15Zm.48.59-.14-.17Zm2.24,3.4.18.38Zm-.24-.45.15.27Zm-.27-.47.15.25Zm-.31-.5.15.24Zm-.34-.52.15.23Zm-.37-.53.15.21ZM783,132c0-.4,0-.79,0-1.17C783,131.22,783,131.61,783,132Zm-.2,4,.17-2c0-.47,0-.91,0-1.33,0,.42,0,.86,0,1.33Z" style="fill:url(#f0d58792-7ce4-4e85-96ea-745a4a02b8cd)"/><path d="M738.69,213.89s-3-11.1-10.35-10.89-17.7,1.48-21.63,6.74-1.57,6.6-1.57,6.6,1.11,1.88,5.32,2.72,24.37-1.12,24.37-1.12Z" style="fill:url(#623c50b1-6952-46e3-898f-b4568171edce)"/><g style="clip-path:url(#4d4a630b-32a3-419c-aa32-5ee417d707a6)"><rect x="700.41" y="199.02" width="42.47" height="26.61" style="fill:url(#20c8708e-91f2-42ea-9262-13c5c88e9c63)"/><path d="M701.1,212.52l12.07,1.39,25.51,0L748,221.8s-16.25,3.71-20,3.25-29.25-9.75-29.25-9.75Z" style="opacity:0.36;mix-blend-mode:multiply;fill:url(#94d08bde-a67c-44c1-9868-b1a495efd42a)"/></g><path d="M858.81,177.43a23.3,23.3,0,0,0,33.37-13.92h0c.2-.53.39-1.07.55-1.62,1-3.38,3.06-11.2,4.38-15.72a46.21,46.21,0,0,1,3.36-7.51c1-1.53,1.9-2.91,2.79-4.12a41.33,41.33,0,0,1,5.84-6.38c11.82-9.21,20.57-7.9,21.81-7.46l-5-1.91h0c-3-1.37-10.38-2.88-18,2.24-3.25,2.17-8.4,6.5-11.95,15.59-.55,1.39-1.88,6-2,6.44a77.87,77.87,0,0,1-5.67,14.37c-2.34,4.45-4.59,8.13-8.35,11.52-11.68,10-21.2,8.43-22.45,8Zm21.27-.69,0,0Zm-.75.41.09,0Zm-.74.38.12-.06Zm-.73.35.15-.07Zm-2.1.89.23-.09Zm1.38-.56.18-.08Zm-.7.3.21-.08Zm-3.89,1.22-.42.07Zm.49-.11-.3.07Zm.53-.13-.28.07Zm.56-.16-.27.08Zm.59-.19-.26.08Zm.62-.21-.24.09Zm-11,.46,1.13.29Zm-3.78-1.29,1.91.73,1.28.39-1.28-.39Z" style="fill:url(#a6328727-505d-472a-9ba3-680636f6822b)"/><g style="clip-path:url(#e4c0d31e-5ea4-41a4-8657-82636f0beeac)"><rect x="723.85" y="195.5" width="70" height="35.5" style="fill:url(#d803cfed-daf3-439d-afdd-832a5c24eba4)"/><polygon points="719.1 209.75 738.1 218.5 780.6 218.75 790.29 215.32 798.6 219.5 786.6 228.75 730.6 226.5 719.1 209.75" style="opacity:0.45;mix-blend-mode:multiply;fill:url(#9cd4f2b0-73e3-41ae-be18-2f2b42974731)"/></g><path d="M803.07,228.22s-3.28-12-11.15-11.72-19.06,1.59-23.29,7.26-1.69,7.11-1.69,7.11,1.2,2,5.73,2.93,26.24-1.21,26.24-1.21Z" style="fill:url(#e423bc15-b502-4c8e-8839-e65e65f45892)"/><g style="clip-path:url(#2b8e2ca8-5120-4782-8740-54e8ad6f99db)"><rect x="761.85" y="212.21" width="45.74" height="28.65" style="fill:url(#060c9e4a-5774-467f-b363-59c384736d8e)"/><path d="M762.6,226.75l13,1.5,27.48,0,10,8.52s-17.5,4-21.5,3.5-31.5-10.5-31.5-10.5Z" style="opacity:0.36;mix-blend-mode:multiply;fill:url(#446940e1-d9a5-4b60-9c00-479501679d85)"/></g><path d="M726.57,245.67s-33.34,4-28.29,15.15S686.16,284.06,668,284.06s-86.88-5.72-66,5.72" style="fill:none;stroke:#fff;stroke-miterlimit:10;stroke-width:0.25px"/><path d="M826.69,247s-40.85,5.73-25.36,12.47S858.58,281,839.72,283s-66.68,6.74-84.19,6.06" style="fill:none;stroke:#fff;stroke-miterlimit:10;stroke-width:0.25px"/><path d="M806,238.59S725.9,246,748.12,250.72" style="fill:none;stroke:#fff;stroke-miterlimit:10;stroke-width:0.25px"/><path d="M717.81,256.78S701,258.13,707,263.51s18.86,20.88-24.25,24.92" style="fill:none;stroke:#fff;stroke-miterlimit:10;stroke-width:0.25px"/><path d="M602.85,318.5s16-1.5,21.5,6c6.46,8.81,84,4,79-4.07s8.08-21.22,26.27-21.22" style="fill:none;stroke:#fff;stroke-miterlimit:10;stroke-width:0.25px"/></g></g></svg>