<svg xmlns="http://www.w3.org/2000/svg" viewBox="0 0 89 50"><title>left</title><g id="826a5478-393a-48e3-883e-10715567ddaa" data-name="圖層 4"><path d="M48.55,4.27c7,0,17.13,2.75,28.67,7.66A2.33,2.33,0,0,0,78,12l6.37-.77a1.12,1.12,0,0,1,1.29,1.21V38.36a1.63,1.63,0,0,1-.17.6,1.26,1.26,0,0,1-1.12.6l-6.8-.77a3.3,3.3,0,0,0-1.81.26A71.43,71.43,0,0,1,56.82,44.9a46.77,46.77,0,0,1-7.49.6,32,32,0,0,1-8.09-.95c-.09,0-.18-.09-.26,0-.6,0-1.12.08-1.64.08a10,10,0,0,1-5.51-1.55,7.46,7.46,0,0,1-3.36-6c0-.09-.08-.26-.17-.26-.34-.17-.6-.26-.95-.43-2.15-1.29-3.36-3.61-3.53-6.8a.58.58,0,0,0-.34-.6,5.75,5.75,0,0,1-2.84-2.67,6.07,6.07,0,0,1,.86-7,1.16,1.16,0,0,1,.34-.26c.17-.17,0-.43-.26-.43-4.13.09-9,.18-11.27,0C6.55,18.22,5,15.72,5,13.22c0-4,4.13-5.34,7.32-5.94C18.77,6.08,41,4.27,48.55,4.27Zm-22.81,12a17.7,17.7,0,0,0,3.53-.35,6.39,6.39,0,0,0,3.19-1.72c1.72-1.81,4.48-3.79,6.11-5.25.09-.09.09-.17.17-.26a3.64,3.64,0,0,0,0-1.38A.23.23,0,0,0,38.48,7C29.1,7.63,17,8.75,12.74,9.61c-5.42,1-5.42,2.84-5.42,3.62,0,1.38.69,2.75,5.17,3.1C15.07,16.49,21.44,16.32,25.74,16.24ZM28.5,27.43a18.11,18.11,0,0,0,5.6.17,29.85,29.85,0,0,0,8.18-1.9,14.64,14.64,0,0,0,4-2.32,2.58,2.58,0,0,0,.77-2.67,1,1,0,0,0-1.29-.6c-1.63.43-4,1.12-5.94,1.64a13,13,0,0,1-5.34.34,4.79,4.79,0,0,1-4-3.19,1,1,0,0,0-1.38-.43,11,11,0,0,0-4,2.5c-1.2,1.12-1,3.1-.43,4.3C25.31,26.65,27.12,27.17,28.5,27.43Zm7.83,7.92a21.84,21.84,0,0,0,10.5-3.44c2.58-1.64,3.79-2.84,3.79-4.39a3.16,3.16,0,0,0-.77-2.15A1.53,1.53,0,0,0,48,25.28c-1.55.77-3.44,1.81-5.08,2.5A28.86,28.86,0,0,1,31.51,30a16.77,16.77,0,0,1-2.84-.17.4.4,0,0,0-.43.43,5,5,0,0,0,2.32,4A12.16,12.16,0,0,0,36.33,35.35Zm39.42,1.12a2.54,2.54,0,0,1,1.12-.17L82.3,37a1,1,0,0,0,1-.86V14.51a.78.78,0,0,0-.86-.69l-4.65.6a2.56,2.56,0,0,1-1.12-.17c-10.16-4.39-20.57-7.4-25.56-7.4-4.3,0-6.63.69-9.55,2.58a44,44,0,0,0-7.15,5.85C32.89,17,32.54,18,32.89,18.56c.77,1.55,3.27,1.81,6.28.95C44.08,18,50.1,16.07,51.05,15.64a1.08,1.08,0,0,1,1.38.34c.86,1.21,3.18,3.19,6.89,5.08a25.7,25.7,0,0,0,11.19,3c.6,0,1.46.34,1.46.95s-.69,1.21-1.46,1.38a27.48,27.48,0,0,1-10.5.52c-3.53-.34-5,2.33-5,4.91a11,11,0,0,1-1.72,6.46,19.11,19.11,0,0,1-6.54,4.56c-.18,0-.09.26,0,.26a47.17,47.17,0,0,0,9.72-.43A72.4,72.4,0,0,0,75.75,36.47ZM39.34,42.32A17.77,17.77,0,0,0,51,37.24,3.18,3.18,0,0,0,51.83,34c-.6-1.63-1.9-1.29-2.93-.6-3.62,2.41-9.47,4.3-12.57,4.3-1,0-2.15-.09-3.1-.17-.17,0-.34.08-.34.26a5.32,5.32,0,0,0,2.24,3.44A7.87,7.87,0,0,0,39.34,42.32Z" style="fill:#ad3a3b"/></g></svg>