<svg xmlns="http://www.w3.org/2000/svg" xmlns:xlink="http://www.w3.org/1999/xlink" viewBox="0 0 140.67 60"><defs><linearGradient id="e8404b1d-3943-4dbd-9406-3104167247a1" x1="2.42" y1="50.67" x2="39.31" y2="50.67" gradientUnits="userSpaceOnUse"><stop offset="0" stop-color="#d293ae"/><stop offset="1" stop-color="#ffb8a3"/></linearGradient><clipPath id="9ea14a00-8594-4e49-8585-528066d5d400"><path d="M22.85,48.56S8.33,32.59,9.78,28.23,37.37,7.9,60.61,3.54s71.15,10.16,71.15,10.16l5.86,16.42a7,7,0,0,1-1.38,7L125.95,48.56S53.35,52.91,22.85,48.56Z" style="fill:none"/></clipPath><linearGradient id="e22f40e4-b3c3-4e5b-a842-9560dc327bc0" x1="71.33" y1="64.32" x2="71.33" y2="-32.59" xlink:href="#e8404b1d-3943-4dbd-9406-3104167247a1"/><linearGradient id="c20b29e0-000d-4540-aeef-ba6d783addd4" x1="73.08" y1="62.59" x2="73.08" y2="5.16" xlink:href="#e8404b1d-3943-4dbd-9406-3104167247a1"/><clipPath id="45156c10-a3c7-4634-8708-6d88122ca5c2"><path d="M39.31,53.64S36,41.69,28.16,41.92,9.1,43.51,4.86,49.17s-1.69,7.11-1.69,7.11,1.2,2,5.73,2.93S35.15,58,35.15,58Z" style="fill:url(#e8404b1d-3943-4dbd-9406-3104167247a1)"/></clipPath><linearGradient id="1fc4f10d-9b15-4e1d-a3e5-3c1ae0479fbb" x1="20.96" y1="60.8" x2="20.96" y2="40.03" xlink:href="#e8404b1d-3943-4dbd-9406-3104167247a1"/><linearGradient id="c357e813-d2dd-446f-95b4-3d784b9d97e9" x1="22.83" y1="63.12" x2="22.83" y2="53.3" xlink:href="#e8404b1d-3943-4dbd-9406-3104167247a1"/></defs><title>背景插圖-切圖板</title><g style="isolation:isolate"><g id="305d6b8e-6afc-411b-904e-5052fc260401" data-name="圖層 4"><g style="clip-path:url(#9ea14a00-8594-4e49-8585-528066d5d400)"><rect x="-4.17" y="1.17" width="151" height="54" style="fill:url(#e22f40e4-b3c3-4e5b-a842-9560dc327bc0)"/><path d="M.83,26.17s58.5,17.5,90,17,54.5-18,54.5-18l-1.5,25-31.5,7-99.5-3Z" style="opacity:0.23;mix-blend-mode:multiply;fill:url(#c20b29e0-000d-4540-aeef-ba6d783addd4)"/></g><path d="M39.31,53.64S36,41.69,28.16,41.92,9.1,43.51,4.86,49.17s-1.69,7.11-1.69,7.11,1.2,2,5.73,2.93S35.15,58,35.15,58Z" style="fill:url(#e8404b1d-3943-4dbd-9406-3104167247a1)"/><g style="clip-path:url(#45156c10-a3c7-4634-8708-6d88122ca5c2)"><rect x="-1.91" y="37.63" width="45.74" height="28.65" style="fill:url(#1fc4f10d-9b15-4e1d-a3e5-3c1ae0479fbb)"/><path d="M-1.17,52.17l13,1.5,27.48,0,10,8.52s-17.5,4-21.5,3.5-31.5-10.5-31.5-10.5Z" style="opacity:0.36;mix-blend-mode:multiply;fill:url(#c357e813-d2dd-446f-95b4-3d784b9d97e9)"/></g></g></g></svg>