<svg xmlns="http://www.w3.org/2000/svg" viewBox="0 0 365 146"><title>背景插圖</title><g id="27a206f5-9129-4e2d-882d-8407e3b45043" data-name="圖層 4"><path d="M79.28,35.48q0,1.89-2.89,4a10.25,10.25,0,0,1-5.53,2.26A125.93,125.93,0,0,0,40.08,46Q35,62.25,30.9,80.6a106.85,106.85,0,0,1,21-2.14q4.4,0,8.92.38,2.64.13,2.64,1.76,0,1.88-3.14,4.34t-5.4,2.32q-1.88-.12-5.65-.13a100.82,100.82,0,0,0-20.36,2.26q-5,22.24-8.17,43.86-.38,2.39-3.77,4.21a14,14,0,0,1-6.66,1.82,5,5,0,0,1-3-.75,2.11,2.11,0,0,1-.82-2.26q3.89-24.63,7.92-43L10.17,94.8a12.41,12.41,0,0,1-3.77.75A4,4,0,0,1,4,94.92a2,2,0,0,1-.88-1.76,4,4,0,0,1,1.26-2.64A11.55,11.55,0,0,1,8,88q4.4-2,8.42-3.39,4.27-18.6,9.3-33.8a10.64,10.64,0,0,1-2.51.5,5.12,5.12,0,0,1-3-.88A2.56,2.56,0,0,1,19,48.3q0-2.26,3.52-3.9Q46.23,33,75.39,33.35,79.28,33.35,79.28,35.48Z" style="fill:#ad3a3b"/><path d="M80.29,61.5q0-1.89,3-3.83a10.71,10.71,0,0,1,5.78-1.95,4.54,4.54,0,0,1,2.26.5L99,60.49l.5-7.29q.12-2.14,3-3.77a11.67,11.67,0,0,1,5.78-1.63,5.15,5.15,0,0,1,2.83.69,2.19,2.19,0,0,1,.94,2.2l-.75,9.42q2-1.51,3-2.14a13.67,13.67,0,0,1,3.2-1.7,9.5,9.5,0,0,1,3.33-.69,4.54,4.54,0,0,1,2.26.5,2.59,2.59,0,0,1,1.51,2.26,4.5,4.5,0,0,1-1.88,3.27q-3,2.39-3.27,2.51l-5.65,4.52L123,73.81a2.59,2.59,0,0,1,1.63,2.26q0,1.89-3,3.83a10.7,10.7,0,0,1-5.78,1.95,5.77,5.77,0,0,1-2-.5q-2.52-1.51-3.77-2.14-.5,5.53-.63,8.29-.13,2.14-3,3.77a11.65,11.65,0,0,1-5.78,1.63,4.8,4.8,0,0,1-2.83-.75A2.19,2.19,0,0,1,96.87,90q.5-6,.63-8.92l-6,4.52a12.31,12.31,0,0,1-3.14,1.76,9.52,9.52,0,0,1-3.52.75,4.39,4.39,0,0,1-2.39-.63A2.76,2.76,0,0,1,80.91,85a4.23,4.23,0,0,1,1.89-3.27L96.12,71.55q-7.67-4.4-14.2-7.79A2.58,2.58,0,0,1,80.29,61.5Z" style="fill:#ad3a3b"/><path d="M162,61.5q0-1.89,3-3.83a10.71,10.71,0,0,1,5.78-1.95,4.54,4.54,0,0,1,2.26.5l7.67,4.27.5-7.29q.12-2.14,3-3.77A11.67,11.67,0,0,1,190,47.8a5.15,5.15,0,0,1,2.83.69,2.19,2.19,0,0,1,.94,2.2L193,60.11q2-1.51,3-2.14a13.67,13.67,0,0,1,3.2-1.7,9.5,9.5,0,0,1,3.33-.69,4.54,4.54,0,0,1,2.26.5,2.59,2.59,0,0,1,1.51,2.26,4.5,4.5,0,0,1-1.88,3.27q-3,2.39-3.27,2.51l-5.65,4.52,9.17,5.15a2.59,2.59,0,0,1,1.63,2.26q0,1.89-3,3.83a10.7,10.7,0,0,1-5.78,1.95,5.77,5.77,0,0,1-2-.5q-2.52-1.51-3.77-2.14-.5,5.53-.63,8.29-.13,2.14-3,3.77a11.65,11.65,0,0,1-5.78,1.63,4.8,4.8,0,0,1-2.83-.75,2.19,2.19,0,0,1-.94-2.14q.5-6,.63-8.92l-6,4.52A12.31,12.31,0,0,1,170,87.38a9.52,9.52,0,0,1-3.52.75,4.39,4.39,0,0,1-2.39-.63A2.76,2.76,0,0,1,162.59,85a4.23,4.23,0,0,1,1.89-3.27L177.8,71.55q-7.67-4.4-14.2-7.79A2.58,2.58,0,0,1,162,61.5Z" style="fill:#ad3a3b"/><path d="M298.49,40.39a13.93,13.93,0,0,1,3.71-.5,8.55,8.55,0,0,1,3.14.5q1.25.5,1.26,1.51A3.43,3.43,0,0,1,305.34,44L255.83,92.16l-1.63,1.38q17.84-9.17,27.65-9.17,8.92,0,11.06,7.67a24.62,24.62,0,0,1,.63,5.15,29.77,29.77,0,0,1-.75,6.6q-.75,3.33-2.14,7.73-1.63,5.66-2.26,8.48a28,28,0,0,0-.63,6.09,26.67,26.67,0,0,0,.25,3.14,7.76,7.76,0,0,1,3.08.75,1.86,1.86,0,0,1,1.19,1.63q0,1.38-2.39,3.39l-3.14,2.64a11.35,11.35,0,0,1-3.27,1.76,11.8,11.8,0,0,1-4.27.88q-2.89,0-3.77-2.26a24.28,24.28,0,0,1-1.38-8.42,40,40,0,0,1,.69-7.35q.69-3.71,2.07-9.24a84.17,84.17,0,0,0,2.39-10.81q.38-3.39.38-3.77a5.85,5.85,0,0,0-.82-3.33,3.33,3.33,0,0,0-3-1.19,14.44,14.44,0,0,0-6,1.63q-3.46,1.63-4.21,2-5.4,2.26-13.95,6.79-3.14,15.33-6.53,28.9-.5,2.26-3.9,3.9a14.81,14.81,0,0,1-6.41,1.63,4.51,4.51,0,0,1-2.7-.69,1.76,1.76,0,0,1-.57-2.07q.5-2.14.63-2.89.75-3.27,2.51-11t3-13.76q-2.14-.88-2.14-2.51,0-1.88,3.39-3.9,6.53-33.55,6.53-60.69,0-2.14,3.2-4a12.78,12.78,0,0,1,6.35-1.82,4.81,4.81,0,0,1,2.83.75A2.46,2.46,0,0,1,259,38.38a282.09,282.09,0,0,1-2.89,40.71q17.84-18,39.71-37.45A7.06,7.06,0,0,1,298.49,40.39Z" style="fill:#ad3a3b"/><path d="M319.92,137.9a3.58,3.58,0,0,1-.63-1.89,3.66,3.66,0,0,1,.75-1.88,16.87,16.87,0,0,1,6.16-3.9l.5-.75a11.05,11.05,0,0,1,4.27-2.76,12.2,12.2,0,0,1,3.64-.75q3,0,4,2.14a4,4,0,0,1,.63,2.39,7.36,7.36,0,0,1-1.76,4.52,13.24,13.24,0,0,1-4,3.52,15,15,0,0,1-7.29,2,9.42,9.42,0,0,1-1.76-.13Q320.92,139.66,319.92,137.9Zm17.53-34.56a12.59,12.59,0,0,1-5.34,1.13,7.85,7.85,0,0,1-4.08-.94,2.75,2.75,0,0,1-1.32-3q1.76-12.94,9-47.63T346.31,6.83a4.88,4.88,0,0,1,3-2.89,12.58,12.58,0,0,1,5.34-1.13,7.52,7.52,0,0,1,4,.94,2.19,2.19,0,0,1,1,2.7q-3.27,11.31-10.43,46t-9,47.88Q339.9,102.21,337.45,103.34Z" style="fill:#ad3a3b"/></g></svg>