<svg xmlns="http://www.w3.org/2000/svg" viewBox="0 0 32 32"><title>twitter</title><g id="7cfd0067-515f-4d7d-a43d-9718efb52be6" data-name="圖層 4"><path d="M16,.13A15.87,15.87,0,1,0,31.87,16,15.87,15.87,0,0,0,16,.13Zm6.95,12.31c0,.16,0,.31,0,.47a10.2,10.2,0,0,1-15.7,8.59,7.41,7.41,0,0,0,.87,0A7.18,7.18,0,0,0,12.57,20a3.59,3.59,0,0,1-3.35-2.49,4.52,4.52,0,0,0,.68.06,3.79,3.79,0,0,0,.94-.12A3.58,3.58,0,0,1,8,13.94v0a3.61,3.61,0,0,0,1.62.45A3.59,3.59,0,0,1,8.48,9.55a10.19,10.19,0,0,0,7.39,3.75,4,4,0,0,1-.09-.82A3.59,3.59,0,0,1,22,10a7.05,7.05,0,0,0,2.27-.87,3.57,3.57,0,0,1-1.58,2,7.19,7.19,0,0,0,2.06-.55A7.7,7.7,0,0,1,22.95,12.44Z" style="fill:#fff"/></g></svg>